<svg width="346" height="398" viewBox="0 0 346 398" fill="none" xmlns="http://www.w3.org/2000/svg">
<path d="M40.5 115.5V79.5H72.75C76.5833 79.5 80.0833 78.75 83.25 77.25C86.5833 75.5833 89.25 73.1667 91.25 70C93.25 66.6667 94.25 62.5833 94.25 57.75C94.25 52.9167 93.25 48.9167 91.25 45.75C89.25 42.4167 86.5833 40 83.25 38.5C80.0833 36.8333 76.5833 36 72.75 36H40.5V0H82.5C94 0 104.333 2.33333 113.5 7C122.833 11.5 130.167 18.0833 135.5 26.75C141 35.25 143.75 45.5833 143.75 57.75C143.75 69.75 141 80.0833 135.5 88.75C130.167 97.4167 122.833 104.083 113.5 108.75C104.333 113.25 94 115.5 82.5 115.5H40.5ZM0 178V0H50V178H0Z" fill="black"/>
<path d="M241 185C227 185 214.083 182.667 202.25 178C190.583 173.333 180.333 166.833 171.5 158.5C162.833 150.167 156.083 140.333 151.25 129C146.417 117.667 144 105.417 144 92.25C144 78.9167 146.333 66.6667 151 55.5C155.833 44.3333 162.583 34.5833 171.25 26.25C179.917 17.9167 190.083 11.5 201.75 7C213.583 2.33333 226.5 0 240.5 0C254.5 0 267.333 2.33333 279 7C290.833 11.5 301.083 17.9167 309.75 26.25C318.417 34.5833 325.083 44.4167 329.75 55.75C334.583 66.9167 337 79.1667 337 92.5C337 105.667 334.583 117.917 329.75 129.25C325.083 140.417 318.417 150.25 309.75 158.75C301.083 167.083 290.917 173.583 279.25 178.25C267.583 182.75 254.833 185 241 185ZM240.5 141C249.833 141 257.917 139 264.75 135C271.583 131 276.833 125.333 280.5 118C284.167 110.667 286 102.083 286 92.25C286 84.9167 284.917 78.3333 282.75 72.5C280.75 66.5 277.75 61.4167 273.75 57.25C269.75 52.9167 264.917 49.6667 259.25 47.5C253.75 45.1667 247.5 44 240.5 44C231.167 44 223.083 46 216.25 50C209.417 53.8333 204.167 59.4167 200.5 66.75C196.833 73.9167 195 82.4167 195 92.25C195 99.75 196 106.5 198 112.5C200.167 118.5 203.25 123.667 207.25 128C211.25 132.167 216 135.417 221.5 137.75C227.167 139.917 233.5 141 240.5 141ZM318.25 197.75L232 111.5L259 84.5L345.25 170.75L318.25 197.75Z" fill="black"/>
<path d="M242.75 382C227.583 382 214.333 379.833 203 375.5C191.833 371 181.5 363.917 172 354.25L203.25 323C209.75 329.167 216.583 333.917 223.75 337.25C230.917 340.417 238.583 342 246.75 342C253.583 342 258.75 341 262.25 339C265.75 336.833 267.5 333.917 267.5 330.25C267.5 326.583 266 323.583 263 321.25C260 318.75 256 316.583 251 314.75C246.167 312.75 240.75 310.75 234.75 308.75C228.917 306.75 223.083 304.333 217.25 301.5C211.417 298.667 206 295.25 201 291.25C196.167 287.083 192.25 282 189.25 276C186.25 269.833 184.75 262.333 184.75 253.5C184.75 242 187.5 232.083 193 223.75C198.5 215.417 206.25 209.083 216.25 204.75C226.25 200.25 238 198 251.5 198C264.833 198 277.167 200.167 288.5 204.5C300 208.667 309.5 214.667 317 222.5L285.5 253.75C280 248.417 274.5 244.5 269 242C263.5 239.333 257.5 238 251 238C245.833 238 241.667 238.833 238.5 240.5C235.5 242.167 234 244.667 234 248C234 251.5 235.5 254.417 238.5 256.75C241.5 258.917 245.417 260.917 250.25 262.75C255.25 264.583 260.667 266.5 266.5 268.5C272.5 270.5 278.417 272.917 284.25 275.75C290.083 278.417 295.417 281.917 300.25 286.25C305.25 290.417 309.25 295.667 312.25 302C315.25 308.333 316.75 316 316.75 325C316.75 343.167 310.25 357.25 297.25 367.25C284.417 377.083 266.25 382 242.75 382Z" fill="black"/>
<path d="M47.25 311L133.5 397.25L160.5 370.25L74.25 284L47.25 311Z" fill="black"/>
<path d="M40.5 313.5V277.5H72.75C76.5833 277.5 80.0833 276.75 83.25 275.25C86.5833 273.583 89.25 271.167 91.25 268C93.25 264.667 94.25 260.583 94.25 255.75C94.25 250.917 93.25 246.917 91.25 243.75C89.25 240.417 86.5833 238 83.25 236.5C80.0833 234.833 76.5833 234 72.75 234H40.5V198H82.5C94 198 104.333 200.333 113.5 205C122.833 209.5 130.167 216.083 135.5 224.75C141 233.25 143.75 243.583 143.75 255.75C143.75 267.75 141 278.083 135.5 286.75C130.167 295.417 122.833 302.083 113.5 306.75C104.333 311.25 94 313.5 82.5 313.5H40.5ZM0 376V198H50V376H0Z" fill="black"/>
</svg>
