<svg width="600" height="600" viewBox="0 0 600 600" fill="none" xmlns="http://www.w3.org/2000/svg">
<g clip-path="url(#clip0_23_230)">
<mask id="path-1-outside-1_23_230" maskUnits="userSpaceOnUse" x="109.999" y="110.273" width="491" height="490" fill="black">
<rect fill="white" x="109.999" y="110.273" width="491" height="490"/>
<path fill-rule="evenodd" clip-rule="evenodd" d="M384.304 442.136C359.631 456.83 330.8 465.27 299.998 465.27C269.489 465.27 240.915 456.99 216.399 442.555V575.27H134.999V300.412C134.999 300.365 134.999 300.319 134.999 300.272C134.999 209.145 208.872 135.273 299.998 135.273C391.124 135.273 464.997 209.145 464.997 300.272C464.997 331.057 456.566 359.873 441.887 384.536L575 517.481V575.27H517.438L384.304 442.136ZM381.397 299.172C381.397 344.735 344.461 381.671 298.898 381.671C253.335 381.671 216.399 344.735 216.399 299.172C216.399 253.609 253.335 216.672 298.898 216.672C344.461 216.672 381.397 253.609 381.397 299.172Z"/>
</mask>
<path fill-rule="evenodd" clip-rule="evenodd" d="M384.304 442.136C359.631 456.83 330.8 465.27 299.998 465.27C269.489 465.27 240.915 456.99 216.399 442.555V575.27H134.999V300.412C134.999 300.365 134.999 300.319 134.999 300.272C134.999 209.145 208.872 135.273 299.998 135.273C391.124 135.273 464.997 209.145 464.997 300.272C464.997 331.057 456.566 359.873 441.887 384.536L575 517.481V575.27H517.438L384.304 442.136ZM381.397 299.172C381.397 344.735 344.461 381.671 298.898 381.671C253.335 381.671 216.399 344.735 216.399 299.172C216.399 253.609 253.335 216.672 298.898 216.672C344.461 216.672 381.397 253.609 381.397 299.172Z" fill="#A57BFF"/>
<path d="M384.304 442.136L401.982 424.458L388.226 410.703L371.512 420.657L384.304 442.136ZM216.399 442.555L229.084 421.012L191.399 398.822V442.555H216.399ZM216.399 575.27V600.27H241.399V575.27H216.399ZM134.999 575.27H109.999V600.27H134.999V575.27ZM134.999 300.412H159.999V300.402L159.999 300.391L134.999 300.412ZM441.887 384.536L420.404 371.751L410.451 388.473L424.22 402.225L441.887 384.536ZM575 517.481H600V507.116L592.666 499.792L575 517.481ZM575 575.27V600.27H600V575.27H575ZM517.438 575.27L499.76 592.947L507.082 600.27H517.438V575.27ZM299.998 490.27C335.427 490.27 368.661 480.55 397.096 463.615L371.512 420.657C350.601 433.11 326.174 440.27 299.998 440.27V490.27ZM203.714 464.097C231.969 480.735 264.908 490.27 299.998 490.27V440.27C274.071 440.27 249.861 433.246 229.084 421.012L203.714 464.097ZM241.399 575.27V442.555H191.399V575.27H241.399ZM134.999 600.27H216.399V550.27H134.999V600.27ZM109.999 300.412V575.27H159.999V300.412H109.999ZM109.999 300.272C109.999 300.325 109.999 300.379 109.999 300.433L159.999 300.391C159.999 300.351 159.999 300.312 159.999 300.272H109.999ZM299.998 110.273C195.064 110.273 109.999 195.338 109.999 300.272H159.999C159.999 222.953 222.679 160.273 299.998 160.273V110.273ZM489.997 300.272C489.997 195.338 404.931 110.273 299.998 110.273V160.273C377.317 160.273 439.997 222.953 439.997 300.272H489.997ZM463.37 397.322C480.287 368.898 489.997 335.681 489.997 300.272H439.997C439.997 326.433 432.845 350.847 420.404 371.751L463.37 397.322ZM592.666 499.792L459.553 366.848L424.22 402.225L557.334 535.169L592.666 499.792ZM600 575.27V517.481H550V575.27H600ZM517.438 600.27H575V550.27H517.438V600.27ZM366.626 459.814L499.76 592.947L535.116 557.592L401.982 424.458L366.626 459.814ZM298.898 406.671C358.268 406.671 406.397 358.542 406.397 299.172H356.397C356.397 330.928 330.654 356.671 298.898 356.671V406.671ZM191.399 299.172C191.399 358.542 239.528 406.671 298.898 406.671V356.671C267.142 356.671 241.399 330.928 241.399 299.172H191.399ZM298.898 191.672C239.528 191.672 191.399 239.802 191.399 299.172H241.399C241.399 267.416 267.142 241.672 298.898 241.672V191.672ZM406.397 299.172C406.397 239.802 358.268 191.672 298.898 191.672V241.672C330.654 241.672 356.397 267.416 356.397 299.172H406.397Z" fill="#5327B1" mask="url(#path-1-outside-1_23_230)"/>
<path d="M523.299 119.173H574.996H587.496V106.673V25.2739V12.7739H574.996H299.998C141.217 12.7739 12.5 141.491 12.5 300.272V575.27V587.77H25H108.599H121.099V575.27V325.972H122.273L121.45 312.698C121.217 308.954 121.099 305.177 121.099 301.372C121.099 201.961 201.687 121.373 301.098 121.373C400.508 121.373 481.096 201.961 481.096 301.372C481.096 329.918 477.159 353.491 466.127 376.486L462.197 384.678L468.776 390.944L529.86 449.127L541.038 459.774L549.128 446.626C576.315 402.436 587.496 354.875 587.496 300.272C587.496 231.636 563.431 168.601 523.299 119.173ZM444.692 548.756L458.696 540.585L447.231 529.121L387.067 468.957L381.033 462.922L373.215 466.345C351.152 476.004 326.768 481.37 301.098 481.37C300.754 481.37 300.411 481.369 300.068 481.367L287.498 481.297V481.37H242.798H230.298V493.87V575.27V587.77H242.798H299.998C352.73 587.77 402.182 573.561 444.692 548.756Z" fill="#FFA57B" stroke="#5327B1" stroke-width="25"/>
</g>
<defs>
<clipPath id="clip0_23_230">
<rect width="600" height="600" fill="white"/>
</clipPath>
</defs>
</svg>
