<svg width="500" height="500" viewBox="0 0 500 500" fill="none" xmlns="http://www.w3.org/2000/svg">
<path fill-rule="evenodd" clip-rule="evenodd" d="M250 460C291.534 460 332.135 447.684 366.67 424.609C401.204 401.533 428.12 368.736 444.015 330.363C459.909 291.991 464.068 249.767 455.965 209.031C447.862 168.295 427.861 130.877 398.492 101.508C369.123 72.1386 331.705 52.1381 290.969 44.0352C250.233 35.9323 208.009 40.091 169.636 55.9854C131.264 71.8798 98.4665 98.796 75.3914 133.33C52.3163 167.865 40.0001 208.466 40.0001 250L40 460H158.125V250C158.125 199.259 199.259 158.125 250 158.125C300.741 158.125 341.875 199.259 341.875 250C341.875 300.741 300.741 341.875 250 341.875H249.924H197.5V460L250 460ZM302.5 250C302.5 278.995 278.995 302.5 250 302.5L197.5 302.5V250C197.5 221.005 221.005 197.5 250 197.5C278.995 197.5 302.5 221.005 302.5 250Z" fill="#4763EF"/>
</svg>
