<svg width="300" height="300" viewBox="0 0 300 300" fill="none" xmlns="http://www.w3.org/2000/svg">
<g clip-path="url(#clip0_46_670)">
<rect width="300" height="300" fill="white"/>
<path fill-rule="evenodd" clip-rule="evenodd" d="M200 100C200 137.014 179.89 169.331 150 186.622V200C150 227.614 172.386 250 200 250C227.614 250 250 227.614 250 200C250 172.386 227.614 150 200 150L198.484 150C208.369 130.132 212.024 107.713 208.929 85.691C208.107 79.8402 206.819 74.0938 205.09 68.5023C205.848 66.2191 206.689 63.9607 207.612 61.7317C212.638 49.5991 220.003 38.5752 229.289 29.2893C238.575 20.0035 249.599 12.6375 261.732 7.61205C273.864 2.58658 286.868 0 300 0V50C272.386 50 250 72.3858 250 100V113.397C257.552 117.758 264.518 123.097 270.711 129.289C279.997 138.575 287.362 149.599 292.388 161.732C297.413 173.864 300 186.868 300 200C300 213.132 297.413 226.136 292.388 238.268C287.362 250.401 279.997 261.425 270.711 270.711C261.425 279.997 250.401 287.362 238.268 292.388C226.136 297.413 213.132 300 200 300C186.868 300 173.864 297.413 161.732 292.388C149.599 287.362 138.575 279.997 129.289 270.711C120.003 261.425 112.638 250.401 107.612 238.268C102.587 226.136 100 213.132 100 200C44.7715 200 0 155.228 0 100C0 44.7715 44.7715 0 100 0C155.228 0 200 44.7715 200 100ZM150 100C150 127.614 127.614 150 100 150C72.3858 150 50 127.614 50 100C50 72.3858 72.3858 50 100 50C127.614 50 150 72.3858 150 100ZM0 146.826V300H50V198.98C39.2309 193.484 29.375 186.217 20.8726 177.412C12.1832 168.414 5.14783 158.059 0 146.826Z" fill="#768BF3"/>
</g>
<defs>
<clipPath id="clip0_46_670">
<rect width="300" height="300" fill="white"/>
</clipPath>
</defs>
</svg>
