<svg width="500" height="500" viewBox="0 0 500 500" fill="none" xmlns="http://www.w3.org/2000/svg">
<path d="M250 460C291.534 460 332.135 447.684 366.67 424.609C401.204 401.533 428.12 368.736 444.015 330.363C459.909 291.991 464.068 249.767 455.965 209.031C447.862 168.295 427.861 130.877 398.492 101.508C369.123 72.1386 331.705 52.1381 290.969 44.0352C250.233 35.9323 208.009 40.091 169.636 55.9854C131.264 71.8798 98.4665 98.796 75.3914 133.33C52.3163 167.865 40.0001 208.466 40.0001 250L40 328.248C53.7426 314.674 71.7155 305.373 91.7631 302.5H158.125L158.125 250C158.125 199.259 199.259 158.125 250 158.125C300.741 158.125 341.875 199.259 341.875 250C341.875 300.741 300.741 341.875 250 341.875H197.5V408.221C194.63 428.275 185.328 446.254 171.75 460L250 460Z" fill="#4763EF"/>
<path d="M40 401.875C40 368.738 66.8629 341.875 100 341.875H158.125V400C158.125 433.137 131.262 460 98.125 460H40V401.875Z" fill="#4763EF"/>
<path d="M250 302.5C278.995 302.5 302.5 278.995 302.5 250C302.5 221.005 278.995 197.5 250 197.5C221.005 197.5 197.5 221.005 197.5 250V302.5H250Z" fill="#4763EF"/>
</svg>
