<svg width="262" height="307" viewBox="0 0 262 307" fill="none" xmlns="http://www.w3.org/2000/svg">
<path d="M254.245 236.734C257.645 234.823 257.645 229.927 254.245 228.016L133.45 160.127C131.928 159.272 130.072 159.272 128.55 160.127L7.75549 228.016C4.35513 229.927 4.35513 234.823 7.75549 236.734L128.55 304.623C130.072 305.478 131.928 305.478 133.45 304.623L254.245 236.734Z" fill="#5327B1" stroke="#5327B1" stroke-width="2"/>
<path d="M235.738 73.1157C240.508 70.4422 240.508 63.5765 235.738 60.903L134.062 3.91808C131.936 2.72655 129.344 2.72655 127.218 3.91808L25.5418 60.903C20.7716 63.5765 20.7716 70.4422 25.5418 73.1157L127.218 130.101C129.344 131.292 131.936 131.292 134.062 130.101L235.738 73.1157Z" fill="#A57BFF" stroke="#5327B1" stroke-width="5"/>
<path d="M14.6465 192.927C14.6465 195.46 16.0147 197.795 18.2241 199.033L120.218 256.196C124.884 258.811 130.64 255.439 130.64 250.09V136.12C130.64 133.587 129.272 131.252 127.062 130.014L25.0688 72.8507C20.4027 70.2355 14.6465 73.6081 14.6465 78.957V192.927Z" fill="#FFA57B" stroke="#5327B1" stroke-width="5"/>
<path d="M243.142 199.033C245.351 197.795 246.72 195.46 246.72 192.927V78.957C246.72 73.6081 240.963 70.2355 236.297 72.8507L134.304 130.014C132.094 131.252 130.726 133.587 130.726 136.12V250.09C130.726 255.439 136.482 258.811 141.148 256.196L243.142 199.033Z" fill="#7BFFA5" stroke="#5327B1" stroke-width="5"/>
</svg>
