<svg width="600" height="600" viewBox="0 0 600 600" fill="none" xmlns="http://www.w3.org/2000/svg">
<path fill-rule="evenodd" clip-rule="evenodd" d="M382.288 438.562C358.166 452.929 329.978 461.181 299.863 461.181C270.035 461.181 242.098 453.085 218.129 438.972V568.726H138.545V299.98C138.545 299.941 138.545 299.902 138.545 299.863C138.545 210.77 210.77 138.545 299.863 138.545C388.956 138.545 461.181 210.77 461.181 299.863C461.181 329.961 452.938 358.134 438.587 382.248L568.73 512.226V568.726H512.452L382.288 438.562ZM379.446 298.788C379.446 343.334 343.334 379.446 298.788 379.446C254.241 379.446 218.129 343.334 218.129 298.788C218.129 254.241 254.241 218.129 298.788 218.129C343.334 218.129 379.446 254.241 379.446 298.788Z" fill="#A57BFF"/>
<path d="M490.81 110.583C538.975 159.171 568.726 226.042 568.726 299.863C568.726 351.439 554.203 399.624 529.024 440.55L470.721 382.247C482.529 357.636 489.143 330.059 489.143 300.938C489.143 196.996 404.881 112.734 300.938 112.734C196.996 112.734 112.734 196.996 112.734 300.938C112.734 304.912 112.857 308.856 113.1 312.768H112.734V568.726H31V299.863C31 151.374 151.374 31 299.863 31H568.726V110.583H490.81Z" fill="#FFA57B"/>
<path d="M376.348 473.426L435.17 532.248C395.427 555.439 349.197 568.726 299.863 568.726H243.94V489.143H299.863V489.14C300.221 489.142 300.58 489.143 300.938 489.143C327.755 489.143 353.261 483.534 376.348 473.426Z" fill="#FFA57B"/>
</svg>
